<svg width="286" height="211" viewBox="0 0 286 211" fill="none" xmlns="http://www.w3.org/2000/svg">
<path d="M15.4731 60.6C12.5131 60.6 9.91313 60.16 7.67313 59.28C5.43313 58.4 3.27313 57 1.19313 55.08C0.913125 54.8 0.673125 54.5 0.473125 54.18C0.313125 53.82 0.233125 53.44 0.233125 53.04C0.233125 52.4 0.453125 51.84 0.893125 51.36C1.37313 50.84 1.95313 50.58 2.63313 50.58C3.19313 50.58 3.69313 50.8 4.13313 51.24C5.69313 52.76 7.37313 53.92 9.17313 54.72C11.0131 55.52 13.0731 55.92 15.3531 55.92C17.1131 55.92 18.6931 55.64 20.0931 55.08C21.5331 54.52 22.6731 53.74 23.5131 52.74C24.3531 51.74 24.7731 50.58 24.7731 49.26C24.7331 47.66 24.2531 46.34 23.3331 45.3C22.4531 44.26 21.2131 43.4 19.6131 42.72C18.0531 42 16.2331 41.4 14.1531 40.92C12.3131 40.48 10.6131 39.94 9.05313 39.3C7.53313 38.66 6.21313 37.88 5.09313 36.96C3.97313 36 3.09313 34.86 2.45313 33.54C1.85313 32.18 1.55313 30.6 1.55313 28.8C1.55313 26.52 2.15313 24.52 3.35313 22.8C4.55313 21.08 6.21313 19.76 8.33313 18.84C10.4531 17.88 12.8931 17.4 15.6531 17.4C18.0931 17.4 20.3931 17.8 22.5531 18.6C24.7531 19.4 26.5131 20.5 27.8331 21.9C28.6331 22.66 29.0331 23.4 29.0331 24.12C29.0331 24.72 28.7731 25.28 28.2531 25.8C27.7731 26.28 27.2131 26.52 26.5731 26.52C26.1331 26.52 25.7331 26.36 25.3731 26.04C24.6931 25.28 23.8331 24.6 22.7931 24C21.7531 23.4 20.6131 22.92 19.3731 22.56C18.1331 22.2 16.8931 22.02 15.6531 22.02C13.8131 22.02 12.1931 22.3 10.7931 22.86C9.39313 23.38 8.29313 24.14 7.49313 25.14C6.73313 26.1 6.35313 27.26 6.35313 28.62C6.35313 30.14 6.79313 31.4 7.67313 32.4C8.55313 33.36 9.73313 34.16 11.2131 34.8C12.6931 35.4 14.3331 35.94 16.1331 36.42C18.0931 36.9 19.8931 37.46 21.5331 38.1C23.2131 38.7 24.6531 39.46 25.8531 40.38C27.0531 41.3 27.9731 42.48 28.6131 43.92C29.2931 45.32 29.6331 47.06 29.6331 49.14C29.6331 51.34 29.0131 53.3 27.7731 55.02C26.5331 56.74 24.8331 58.1 22.6731 59.1C20.5531 60.06 18.1531 60.56 15.4731 60.6ZM51.8463 28.5C54.4863 28.5 56.5663 29.08 58.0863 30.24C59.6463 31.36 60.7463 32.88 61.3863 34.8C62.0663 36.68 62.4062 38.78 62.4062 41.1V57.54C62.4062 58.22 62.1663 58.8 61.6863 59.28C61.2463 59.76 60.6863 60 60.0063 60C59.3263 60 58.7463 59.76 58.2663 59.28C57.8263 58.8 57.6063 58.22 57.6063 57.54V41.1C57.6063 39.58 57.3863 38.22 56.9463 37.02C56.5063 35.78 55.7663 34.8 54.7263 34.08C53.7263 33.32 52.3463 32.94 50.5863 32.94C48.9463 32.94 47.4463 33.32 46.0863 34.08C44.7263 34.8 43.6463 35.78 42.8463 37.02C42.0463 38.22 41.6463 39.58 41.6463 41.1V57.54C41.6463 58.22 41.4063 58.8 40.9263 59.28C40.4863 59.76 39.9263 60 39.2463 60C38.5663 60 37.9863 59.76 37.5063 59.28C37.0663 58.8 36.8463 58.22 36.8463 57.54V18C36.8463 17.32 37.0663 16.76 37.5063 16.32C37.9863 15.84 38.5663 15.6 39.2463 15.6C39.9663 15.6 40.5463 15.84 40.9863 16.32C41.4263 16.76 41.6463 17.32 41.6463 18V35.94L40.4463 37.26C40.6463 36.22 41.0863 35.18 41.7663 34.14C42.4463 33.06 43.3063 32.1 44.3463 31.26C45.3863 30.42 46.5463 29.76 47.8262 29.28C49.1063 28.76 50.4463 28.5 51.8463 28.5ZM96.8594 28.68C97.5394 28.68 98.0994 28.92 98.5394 29.4C99.0194 29.84 99.2594 30.4 99.2594 31.08V57.54C99.2594 58.22 99.0194 58.8 98.5394 59.28C98.0994 59.76 97.5394 60 96.8594 60C96.1394 60 95.5594 59.76 95.1194 59.28C94.6794 58.8 94.4594 58.22 94.4594 57.54V51.84L95.5994 51.72C95.5994 52.6 95.2994 53.56 94.6994 54.6C94.0994 55.64 93.2794 56.62 92.2394 57.54C91.1994 58.42 89.9594 59.16 88.5194 59.76C87.1194 60.32 85.5994 60.6 83.9594 60.6C81.2394 60.6 78.7994 59.9 76.6394 58.5C74.4794 57.06 72.7594 55.12 71.4794 52.68C70.2394 50.24 69.6194 47.46 69.6194 44.34C69.6194 41.18 70.2394 38.4 71.4794 36C72.7594 33.56 74.4794 31.66 76.6394 30.3C78.7994 28.9 81.1994 28.2 83.8394 28.2C85.5594 28.2 87.1594 28.48 88.6394 29.04C90.1194 29.6 91.3994 30.36 92.4794 31.32C93.5994 32.28 94.4594 33.34 95.0594 34.5C95.6994 35.66 96.0194 36.82 96.0194 37.98L94.4594 37.62V31.08C94.4594 30.4 94.6794 29.84 95.1194 29.4C95.5594 28.92 96.1394 28.68 96.8594 28.68ZM84.4994 56.16C86.4994 56.16 88.2594 55.64 89.7794 54.6C91.3394 53.56 92.5394 52.16 93.3794 50.4C94.2594 48.6 94.6994 46.58 94.6994 44.34C94.6994 42.14 94.2594 40.16 93.3794 38.4C92.5394 36.6 91.3394 35.2 89.7794 34.2C88.2594 33.16 86.4994 32.64 84.4994 32.64C82.5394 32.64 80.7794 33.14 79.2194 34.14C77.6994 35.14 76.4994 36.52 75.6194 38.28C74.7394 40.04 74.2994 42.06 74.2994 44.34C74.2994 46.58 74.7194 48.6 75.5594 50.4C76.4394 52.16 77.6394 53.56 79.1594 54.6C80.7194 55.64 82.4994 56.16 84.4994 56.16ZM123.455 28.5C126.175 28.5 128.615 29.18 130.775 30.54C132.935 31.9 134.635 33.78 135.875 36.18C137.155 38.58 137.795 41.34 137.795 44.46C137.795 47.54 137.155 50.3 135.875 52.74C134.635 55.14 132.935 57.04 130.775 58.44C128.655 59.8 126.255 60.48 123.575 60.48C122.095 60.48 120.695 60.26 119.375 59.82C118.095 59.34 116.915 58.74 115.835 58.02C114.795 57.26 113.915 56.42 113.195 55.5C112.475 54.54 111.955 53.6 111.635 52.68L112.955 51.84V69.54C112.955 70.22 112.735 70.8 112.295 71.28C111.855 71.76 111.275 72 110.555 72C109.875 72 109.295 71.76 108.815 71.28C108.375 70.84 108.155 70.26 108.155 69.54V31.2C108.155 30.52 108.375 29.96 108.815 29.52C109.295 29.04 109.875 28.8 110.555 28.8C111.275 28.8 111.855 29.04 112.295 29.52C112.735 29.96 112.955 30.52 112.955 31.2V36.54L112.055 36.06C112.335 35.06 112.815 34.1 113.495 33.18C114.215 32.26 115.075 31.46 116.075 30.78C117.115 30.06 118.255 29.5 119.495 29.1C120.775 28.7 122.095 28.5 123.455 28.5ZM122.915 32.94C120.915 32.94 119.135 33.44 117.575 34.44C116.055 35.44 114.855 36.8 113.975 38.52C113.135 40.24 112.715 42.22 112.715 44.46C112.715 46.66 113.135 48.64 113.975 50.4C114.855 52.16 116.055 53.54 117.575 54.54C119.135 55.54 120.915 56.04 122.915 56.04C124.915 56.04 126.675 55.54 128.195 54.54C129.715 53.54 130.915 52.16 131.795 50.4C132.675 48.64 133.115 46.66 133.115 44.46C133.115 42.22 132.675 40.24 131.795 38.52C130.915 36.8 129.715 35.44 128.195 34.44C126.675 33.44 124.915 32.94 122.915 32.94ZM159.35 60.6C156.15 60.6 153.35 59.92 150.95 58.56C148.55 57.2 146.67 55.34 145.31 52.98C143.99 50.58 143.33 47.82 143.33 44.7C143.33 41.22 144.01 38.26 145.37 35.82C146.77 33.34 148.57 31.46 150.77 30.18C153.01 28.86 155.37 28.2 157.85 28.2C159.69 28.2 161.47 28.54 163.19 29.22C164.91 29.9 166.43 30.9 167.75 32.22C169.07 33.5 170.13 35.06 170.93 36.9C171.73 38.7 172.15 40.72 172.19 42.96C172.19 43.6 171.95 44.14 171.47 44.58C170.99 45.02 170.43 45.24 169.79 45.24H146.09L145.01 41.1H168.11L167.15 41.94V40.62C166.99 38.98 166.43 37.58 165.47 36.42C164.55 35.22 163.41 34.3 162.05 33.66C160.73 33.02 159.33 32.7 157.85 32.7C156.65 32.7 155.45 32.92 154.25 33.36C153.09 33.76 152.03 34.44 151.07 35.4C150.15 36.32 149.39 37.52 148.79 39C148.23 40.48 147.95 42.26 147.95 44.34C147.95 46.66 148.41 48.7 149.33 50.46C150.29 52.22 151.61 53.62 153.29 54.66C154.97 55.66 156.93 56.16 159.17 56.16C160.57 56.16 161.79 55.98 162.83 55.62C163.87 55.26 164.77 54.82 165.53 54.3C166.29 53.74 166.93 53.18 167.45 52.62C167.97 52.26 168.47 52.08 168.95 52.08C169.55 52.08 170.03 52.28 170.39 52.68C170.79 53.08 170.99 53.56 170.99 54.12C170.99 54.8 170.67 55.4 170.03 55.92C168.91 57.16 167.39 58.26 165.47 59.22C163.55 60.14 161.51 60.6 159.35 60.6ZM177.665 55.08C177.305 54.56 177.145 54.02 177.185 53.46C177.225 52.86 177.565 52.34 178.205 51.9C178.605 51.62 179.065 51.5 179.585 51.54C180.145 51.58 180.645 51.84 181.085 52.32C182.205 53.64 183.485 54.7 184.925 55.5C186.365 56.26 188.125 56.64 190.205 56.64C191.165 56.6 192.125 56.44 193.085 56.16C194.045 55.88 194.845 55.4 195.485 54.72C196.165 54 196.505 53.06 196.505 51.9C196.505 50.78 196.165 49.9 195.485 49.26C194.805 48.58 193.925 48.04 192.845 47.64C191.765 47.2 190.585 46.82 189.305 46.5C187.985 46.14 186.685 45.74 185.405 45.3C184.125 44.82 182.965 44.24 181.925 43.56C180.925 42.84 180.105 41.96 179.465 40.92C178.865 39.84 178.565 38.54 178.565 37.02C178.565 35.22 179.045 33.66 180.005 32.34C181.005 31.02 182.325 30 183.965 29.28C185.645 28.56 187.465 28.2 189.425 28.2C190.545 28.2 191.705 28.34 192.905 28.62C194.145 28.86 195.345 29.3 196.505 29.94C197.665 30.54 198.685 31.38 199.565 32.46C199.925 32.86 200.125 33.36 200.165 33.96C200.205 34.56 199.945 35.1 199.385 35.58C198.945 35.9 198.445 36.04 197.885 36C197.365 35.96 196.925 35.76 196.565 35.4C195.725 34.4 194.665 33.64 193.385 33.12C192.145 32.56 190.765 32.28 189.245 32.28C188.285 32.28 187.345 32.42 186.425 32.7C185.505 32.98 184.725 33.46 184.085 34.14C183.485 34.78 183.185 35.68 183.185 36.84C183.225 37.92 183.585 38.8 184.265 39.48C184.945 40.16 185.865 40.72 187.025 41.16C188.185 41.56 189.465 41.96 190.865 42.36C192.145 42.68 193.365 43.06 194.525 43.5C195.725 43.9 196.805 44.44 197.765 45.12C198.725 45.8 199.485 46.68 200.045 47.76C200.605 48.8 200.885 50.12 200.885 51.72C200.885 53.56 200.365 55.16 199.325 56.52C198.285 57.84 196.905 58.86 195.185 59.58C193.505 60.26 191.685 60.6 189.725 60.6C187.525 60.6 185.345 60.18 183.185 59.34C181.065 58.5 179.225 57.08 177.665 55.08ZM172.033 90.72C172.713 90.72 173.413 90.8 174.133 90.96C174.893 91.12 175.533 91.4 176.053 91.8C176.613 92.2 176.893 92.74 176.893 93.42C176.893 94.06 176.693 94.6 176.293 95.04C175.893 95.44 175.413 95.64 174.853 95.64C174.493 95.64 173.993 95.54 173.353 95.34C172.713 95.1 172.053 94.98 171.373 94.98C170.453 94.98 169.693 95.18 169.093 95.58C168.533 95.98 168.113 96.52 167.833 97.2C167.593 97.84 167.473 98.56 167.473 99.36V132.54C167.473 133.22 167.233 133.8 166.753 134.28C166.313 134.76 165.753 135 165.073 135C164.353 135 163.773 134.76 163.333 134.28C162.893 133.8 162.673 133.22 162.673 132.54V99.42C162.673 96.74 163.493 94.62 165.133 93.06C166.813 91.5 169.113 90.72 172.033 90.72ZM173.713 104.46C174.353 104.46 174.893 104.68 175.333 105.12C175.773 105.52 175.993 106.04 175.993 106.68C175.993 107.32 175.773 107.86 175.333 108.3C174.893 108.7 174.353 108.9 173.713 108.9H158.653C158.013 108.9 157.473 108.68 157.033 108.24C156.593 107.8 156.373 107.28 156.373 106.68C156.373 106 156.593 105.46 157.033 105.06C157.473 104.66 158.013 104.46 158.653 104.46H173.713ZM209.568 119.4C209.568 122.52 208.868 125.3 207.468 127.74C206.108 130.18 204.248 132.1 201.888 133.5C199.568 134.9 196.948 135.6 194.028 135.6C191.108 135.6 188.468 134.9 186.108 133.5C183.748 132.1 181.868 130.18 180.468 127.74C179.108 125.3 178.428 122.52 178.428 119.4C178.428 116.28 179.108 113.5 180.468 111.06C181.868 108.62 183.748 106.7 186.108 105.3C188.468 103.9 191.108 103.2 194.028 103.2C196.948 103.2 199.568 103.9 201.888 105.3C204.248 106.7 206.108 108.62 207.468 111.06C208.868 113.5 209.568 116.28 209.568 119.4ZM204.768 119.4C204.768 117.08 204.288 115.04 203.328 113.28C202.408 111.52 201.128 110.14 199.488 109.14C197.888 108.14 196.068 107.64 194.028 107.64C191.988 107.64 190.148 108.14 188.508 109.14C186.908 110.14 185.628 111.52 184.668 113.28C183.708 115.04 183.228 117.08 183.228 119.4C183.228 121.68 183.708 123.7 184.668 125.46C185.628 127.22 186.908 128.62 188.508 129.66C190.148 130.66 191.988 131.16 194.028 131.16C196.068 131.16 197.888 130.66 199.488 129.66C201.128 128.62 202.408 127.22 203.328 125.46C204.288 123.7 204.768 121.68 204.768 119.4ZM219.188 135C218.508 135 217.928 134.76 217.448 134.28C217.008 133.8 216.788 133.22 216.788 132.54V106.38C216.788 105.7 217.008 105.14 217.448 104.7C217.928 104.22 218.508 103.98 219.188 103.98C219.908 103.98 220.488 104.22 220.928 104.7C221.368 105.14 221.588 105.7 221.588 106.38V114.3L220.868 113.04C221.108 111.8 221.528 110.6 222.128 109.44C222.768 108.24 223.568 107.18 224.528 106.26C225.488 105.3 226.588 104.56 227.828 104.04C229.068 103.48 230.428 103.2 231.908 103.2C232.788 103.2 233.588 103.42 234.308 103.86C235.068 104.26 235.448 104.84 235.448 105.6C235.448 106.44 235.228 107.06 234.788 107.46C234.348 107.86 233.848 108.06 233.288 108.06C232.768 108.06 232.268 107.96 231.788 107.76C231.308 107.52 230.708 107.4 229.988 107.4C228.988 107.4 227.988 107.68 226.988 108.24C226.028 108.76 225.128 109.52 224.288 110.52C223.488 111.52 222.828 112.66 222.308 113.94C221.828 115.18 221.588 116.52 221.588 117.96V132.54C221.588 133.22 221.348 133.8 220.868 134.28C220.428 134.76 219.868 135 219.188 135ZM112.277 168C112.957 168 113.537 168.24 114.017 168.72C114.497 169.16 114.737 169.74 114.737 170.46V207.54C114.737 208.22 114.477 208.8 113.957 209.28C113.477 209.76 112.897 210 112.217 210C111.457 210 110.857 209.76 110.417 209.28C109.977 208.8 109.757 208.22 109.757 207.54V170.46C109.757 169.74 109.997 169.16 110.477 168.72C110.957 168.24 111.557 168 112.277 168ZM139.937 168C140.657 168 141.237 168.24 141.677 168.72C142.157 169.16 142.397 169.74 142.397 170.46V207.54C142.397 208.22 142.157 208.8 141.677 209.28C141.197 209.76 140.597 210 139.877 210C139.197 210 138.617 209.76 138.137 209.28C137.657 208.8 137.417 208.22 137.417 207.54V170.46C137.417 169.74 137.657 169.16 138.137 168.72C138.657 168.24 139.257 168 139.937 168ZM112.037 186.3H139.997L139.937 190.98H111.857L112.037 186.3ZM177.66 178.68C178.34 178.68 178.9 178.92 179.34 179.4C179.82 179.84 180.06 180.4 180.06 181.08V207.54C180.06 208.22 179.82 208.8 179.34 209.28C178.9 209.76 178.34 210 177.66 210C176.94 210 176.36 209.76 175.92 209.28C175.48 208.8 175.26 208.22 175.26 207.54V201.84L176.4 201.72C176.4 202.6 176.1 203.56 175.5 204.6C174.9 205.64 174.08 206.62 173.04 207.54C172 208.42 170.76 209.16 169.32 209.76C167.92 210.32 166.4 210.6 164.76 210.6C162.04 210.6 159.6 209.9 157.44 208.5C155.28 207.06 153.56 205.12 152.28 202.68C151.04 200.24 150.42 197.46 150.42 194.34C150.42 191.18 151.04 188.4 152.28 186C153.56 183.56 155.28 181.66 157.44 180.3C159.6 178.9 162 178.2 164.64 178.2C166.36 178.2 167.96 178.48 169.44 179.04C170.92 179.6 172.2 180.36 173.28 181.32C174.4 182.28 175.26 183.34 175.86 184.5C176.5 185.66 176.82 186.82 176.82 187.98L175.26 187.62V181.08C175.26 180.4 175.48 179.84 175.92 179.4C176.36 178.92 176.94 178.68 177.66 178.68ZM165.3 206.16C167.3 206.16 169.06 205.64 170.58 204.6C172.14 203.56 173.34 202.16 174.18 200.4C175.06 198.6 175.5 196.58 175.5 194.34C175.5 192.14 175.06 190.16 174.18 188.4C173.34 186.6 172.14 185.2 170.58 184.2C169.06 183.16 167.3 182.64 165.3 182.64C163.34 182.64 161.58 183.14 160.02 184.14C158.5 185.14 157.3 186.52 156.42 188.28C155.54 190.04 155.1 192.06 155.1 194.34C155.1 196.58 155.52 198.6 156.36 200.4C157.24 202.16 158.44 203.56 159.96 204.6C161.52 205.64 163.3 206.16 165.3 206.16ZM204.256 178.2C206.976 178.2 209.416 178.9 211.576 180.3C213.736 181.66 215.436 183.54 216.676 185.94C217.956 188.34 218.596 191.12 218.596 194.28C218.596 197.44 217.956 200.24 216.676 202.68C215.436 205.12 213.736 207.06 211.576 208.5C209.456 209.9 207.056 210.6 204.376 210.6C202.896 210.6 201.496 210.38 200.176 209.94C198.896 209.46 197.716 208.84 196.636 208.08C195.596 207.28 194.716 206.42 193.996 205.5C193.276 204.54 192.756 203.6 192.436 202.68L193.756 201.84V207.84C193.756 208.52 193.536 209.1 193.096 209.58C192.656 210.06 192.076 210.3 191.356 210.3C190.676 210.3 190.096 210.08 189.616 209.64C189.176 209.16 188.956 208.56 188.956 207.84V168.06C188.956 167.38 189.176 166.8 189.616 166.32C190.096 165.84 190.676 165.6 191.356 165.6C192.076 165.6 192.656 165.84 193.096 166.32C193.536 166.8 193.756 167.38 193.756 168.06V186.54L192.856 186.06C193.136 185.06 193.616 184.1 194.296 183.18C195.016 182.22 195.876 181.38 196.876 180.66C197.916 179.9 199.056 179.3 200.296 178.86C201.576 178.42 202.896 178.2 204.256 178.2ZM203.716 182.64C201.716 182.64 199.936 183.14 198.376 184.14C196.856 185.14 195.656 186.52 194.776 188.28C193.936 190.04 193.516 192.04 193.516 194.28C193.516 196.52 193.936 198.54 194.776 200.34C195.656 202.14 196.856 203.56 198.376 204.6C199.936 205.64 201.716 206.16 203.716 206.16C205.716 206.16 207.476 205.64 208.996 204.6C210.516 203.56 211.716 202.14 212.596 200.34C213.476 198.54 213.916 196.52 213.916 194.28C213.916 192.04 213.476 190.04 212.596 188.28C211.716 186.52 210.516 185.14 208.996 184.14C207.476 183.14 205.716 182.64 203.716 182.64ZM230.431 207.54C230.431 208.22 230.191 208.8 229.711 209.28C229.271 209.76 228.711 210 228.031 210C227.311 210 226.731 209.76 226.291 209.28C225.851 208.8 225.631 208.22 225.631 207.54V180.9C225.631 180.22 225.851 179.66 226.291 179.22C226.771 178.74 227.351 178.5 228.031 178.5C228.711 178.5 229.271 178.74 229.711 179.22C230.191 179.66 230.431 180.22 230.431 180.9V207.54ZM228.031 174.48C227.031 174.48 226.291 174.28 225.811 173.88C225.331 173.48 225.091 172.86 225.091 172.02V171.18C225.091 170.34 225.351 169.72 225.871 169.32C226.391 168.92 227.131 168.72 228.091 168.72C229.051 168.72 229.771 168.92 230.251 169.32C230.731 169.72 230.971 170.34 230.971 171.18V172.02C230.971 172.86 230.711 173.48 230.191 173.88C229.711 174.28 228.991 174.48 228.031 174.48ZM237.853 179.16H251.953C252.593 179.16 253.113 179.38 253.513 179.82C253.953 180.26 254.173 180.78 254.173 181.38C254.173 182.02 253.953 182.56 253.513 183C253.113 183.4 252.593 183.6 251.953 183.6H237.853C237.253 183.6 236.733 183.38 236.293 182.94C235.853 182.5 235.633 181.96 235.633 181.32C235.633 180.72 235.853 180.22 236.293 179.82C236.733 179.38 237.253 179.16 237.853 179.16ZM244.153 171C244.833 171 245.393 171.24 245.833 171.72C246.273 172.16 246.493 172.72 246.493 173.4V202.38C246.493 203.34 246.633 204.06 246.913 204.54C247.193 205.02 247.553 205.36 247.993 205.56C248.473 205.72 248.933 205.8 249.373 205.8C249.773 205.8 250.113 205.74 250.393 205.62C250.713 205.46 251.073 205.38 251.473 205.38C251.873 205.38 252.233 205.58 252.553 205.98C252.913 206.34 253.093 206.82 253.093 207.42C253.093 208.14 252.673 208.76 251.833 209.28C250.993 209.76 250.053 210 249.013 210C248.453 210 247.753 209.96 246.913 209.88C246.113 209.8 245.313 209.54 244.513 209.1C243.713 208.66 243.033 207.94 242.473 206.94C241.953 205.9 241.693 204.46 241.693 202.62V173.4C241.693 172.72 241.933 172.16 242.413 171.72C242.893 171.24 243.473 171 244.153 171ZM260.282 205.08C259.922 204.56 259.762 204.02 259.802 203.46C259.842 202.86 260.182 202.34 260.822 201.9C261.222 201.62 261.682 201.5 262.202 201.54C262.762 201.58 263.262 201.84 263.702 202.32C264.822 203.64 266.102 204.7 267.542 205.5C268.982 206.26 270.742 206.64 272.822 206.64C273.782 206.6 274.742 206.44 275.702 206.16C276.662 205.88 277.462 205.4 278.102 204.72C278.782 204 279.122 203.06 279.122 201.9C279.122 200.78 278.782 199.9 278.102 199.26C277.422 198.58 276.542 198.04 275.462 197.64C274.382 197.2 273.202 196.82 271.922 196.5C270.602 196.14 269.302 195.74 268.022 195.3C266.742 194.82 265.582 194.24 264.542 193.56C263.542 192.84 262.722 191.96 262.082 190.92C261.482 189.84 261.182 188.54 261.182 187.02C261.182 185.22 261.662 183.66 262.622 182.34C263.622 181.02 264.942 180 266.582 179.28C268.262 178.56 270.082 178.2 272.042 178.2C273.162 178.2 274.322 178.34 275.522 178.62C276.762 178.86 277.962 179.3 279.122 179.94C280.282 180.54 281.302 181.38 282.182 182.46C282.542 182.86 282.742 183.36 282.782 183.96C282.822 184.56 282.562 185.1 282.002 185.58C281.562 185.9 281.062 186.04 280.502 186C279.982 185.96 279.542 185.76 279.182 185.4C278.342 184.4 277.282 183.64 276.002 183.12C274.762 182.56 273.382 182.28 271.862 182.28C270.902 182.28 269.962 182.42 269.042 182.7C268.122 182.98 267.342 183.46 266.702 184.14C266.102 184.78 265.802 185.68 265.802 186.84C265.842 187.92 266.202 188.8 266.882 189.48C267.562 190.16 268.482 190.72 269.642 191.16C270.802 191.56 272.082 191.96 273.482 192.36C274.762 192.68 275.982 193.06 277.142 193.5C278.342 193.9 279.422 194.44 280.382 195.12C281.342 195.8 282.102 196.68 282.662 197.76C283.222 198.8 283.502 200.12 283.502 201.72C283.502 203.56 282.982 205.16 281.942 206.52C280.902 207.84 279.522 208.86 277.802 209.58C276.122 210.26 274.302 210.6 272.342 210.6C270.142 210.6 267.962 210.18 265.802 209.34C263.682 208.5 261.842 207.08 260.282 205.08Z" fill="white"/>
<path d="M90.3013 74L133.603 149H47L90.3013 74Z" fill="white"/>
</svg>
